[Header]
FileType HTR
DataType HTRS
FileVersion 1
NumSegments 81
NumFrames 2
DataFrameRate 30
EulerRotationOrder ZYX
CalibrationUnits mm
RotationUnits Degrees
GlobalAxisofGravity Y
BoneLengthAxis Y
ScaleFactor 1.0
[SegmentNames&Hierarchy]
Hips	GLOBAL
LeftUpLeg	Hips
LeftLeg	LeftUpLeg
LeftFoot	LeftLeg
LeftToeBase	LeftFoot
LeftToeEnd	LeftToeBase
LeftLegRoll	LeftLeg
LeftUpLegRoll	LeftUpLeg
Spine	Hips
Spine1	Spine
Spine2	Spine1
LeftShoulder	Spine2
LeftArm	LeftShoulder
LeftForeArm	LeftArm
LeftForeArmRoll	LeftForeArm
LeftHand	LeftForeArm
LeftHandThumb1	LeftHand
LeftHandThumb2	LeftHandThumb1
LeftHandThumb3	LeftHandThumb2
LeftHandThumb4	LeftHandThumb3
LeftHandIndex1	LeftHand
LeftHandIndex2	LeftHandIndex1
LeftHandIndex3	LeftHandIndex2
LeftHandIndex4	LeftHandIndex3
LeftHandMiddle1	LeftHand
LeftHandMiddle2	LeftHandMiddle1
LeftHandMiddle3	LeftHandMiddle2
LeftHandMiddle4	LeftHandMiddle3
LeftHandRing1	LeftHand
LeftHandRing2	LeftHandRing1
LeftHandRing3	LeftHandRing2
LeftHandRing4	LeftHandRing3
LeftHandPinky1	LeftHand
LeftHandPinky2	LeftHandPinky1
LeftHandPinky3	LeftHandPinky2
LeftHandPinky4	LeftHandPinky3
LH_WP	LeftHand
LeftArmRoll	LeftArm
RightShoulder	Spine2
RightArm	RightShoulder
RightForeArm	RightArm
RightHand	RightForeArm
RightHandThumb1	RightHand
RightHandThumb2	RightHandThumb1
RightHandThumb3	RightHandThumb2
RightHandThumb4	RightHandThumb3
RightHandIndex1	RightHand
RightHandIndex2	RightHandIndex1
RightHandIndex3	RightHandIndex2
RightHandIndex4	RightHandIndex3
RightHandMiddle1	RightHand
RightHandMiddle2	RightHandMiddle1
RightHandMiddle3	RightHandMiddle2
RightHandMiddle4	RightHandMiddle3
RightHandRing1	RightHand
RightHandRing2	RightHandRing1
RightHandRing3	RightHandRing2
RightHandRing4	RightHandRing3
RightHandPinky1	RightHand
RightHandPinky2	RightHandPinky1
RightHandPinky3	RightHandPinky2
RightHandPinky4	RightHandPinky3
RH_WP	RightHand
RightForeArmRoll	RightForeArm
RightArmRoll	RightArm
Neck	Spine2
Neck1	Neck
Head	Neck1
Jaw	Head
L_Eye	Head
R_Eye_Socket	Head
L_Eye_Socket	Head
R_Eye	Head
BK_WEP1	Spine2
RightUpLeg	Hips
RightLeg	RightUpLeg
RightFoot	RightLeg
RightToeBase	RightFoot
RightToeEnd	RightToeBase
RightLegRoll	RightLeg
RightUpLegRoll	RightUpLeg
[BasePosition]
Hips	0	0	0	-90	-0	90	1
LeftUpLeg	0	0	0	0.1245552539	2.943081661	177.8888274	1
LeftLeg	0	0	0	-1.553056268e-018	-0.4645708947	-3.190265207	1
LeftFoot	0	0	0	-3.427050049	1.138743235	66.87228657	1
LeftToeBase	0	0	0	-0.1150285401	1.405135968	23.664964	1
LeftToeEnd	0	0	0	0	86.14893154	4.67902715	1
LeftLegRoll	0	0	0	0	-0.0003937979005	-0.0001763048027	1
LeftUpLegRoll	0	0	0	-7.231744079e-028	1.685187608e-005	2.666244888e-005	1
Spine	0	0	0	0	0	-3.518269458	1
Spine1	0	0	0	0	-0	7.885175398	1
Spine2	0	0	0	0	0	-0.09285174208	1
LeftShoulder	0	0	0	160.7860865	59.06322903	63.61338722	1
LeftArm	0	0	0	2.904619295	-26.91541272	-17.55355673	1
LeftForeArm	0	0	0	-90.22254753	-4.753527924	8.383736267	1
LeftForeArmRoll	0	0	0	0	0	0	1
LeftHand	0	0	0	90	-0	0	1
LeftHandThumb1	0	0	0	108.0365432	-19.14265923	-11.8633769	1
LeftHandThumb2	0	0	0	-15.63070336	0.2480216413	-4.679087203	1
LeftHandThumb3	0	0	0	-0.5621291509	1.199440794	-4.464397336	1
LeftHandThumb4	0	0	0	0	0	0	1
LeftHandIndex1	0	0	0	-0.1287480184	2.273223042	-5.916767355	1
LeftHandIndex2	0	0	0	0	0	0	1
LeftHandIndex3	0	0	0	0	0	0	1
LeftHandIndex4	0	0	0	0.06487671692	1.045318787	6.79153565	1
LeftHandMiddle1	0	0	0	-0.1873173809	2.298574433	-7.334490242	1
LeftHandMiddle2	0	0	0	0	0	0	1
LeftHandMiddle3	0	0	0	0	0	0	1
LeftHandMiddle4	0	0	0	0.1011317606	1.031425995	10.25668623	1
LeftHandRing1	0	0	0	-0.2038904391	2.187828672	-7.999827968	1
LeftHandRing2	0	0	0	0	0	0	1
LeftHandRing3	0	0	0	0	0	0	1
LeftHandRing4	0	0	0	0.1270826821	1.220105684	11.26838389	1
LeftHandPinky1	0	0	0	-0.1150589234	1.798482907	-6.335472682	1
LeftHandPinky2	0	0	0	0	0	0	1
LeftHandPinky3	0	0	0	0	0	0	1
LeftHandPinky4	0	0	0	0.09523892401	1.784551098	6.714729621	1
LH_WP	0	0	0	4.792186366e-012	2.776477095	-2.674328027	1
LeftArmRoll	0	0	0	0	2.176196996e-005	0	1
RightShoulder	0	0	0	160.7860865	59.06322903	-116.3866128	1
RightArm	0	0	0	2.904619295	-26.91541272	-17.55355673	1
RightForeArm	0	0	0	-90.22254753	-4.753527924	8.383736267	1
RightHand	0	0	0	90	-0	0	1
RightHandThumb1	0	0	0	108.0365432	-19.14265923	-11.8633769	1
RightHandThumb2	0	0	0	-15.63070336	0.2480216413	-4.679087203	1
RightHandThumb3	0	0	0	-0.5621291509	1.199440794	-4.464397336	1
RightHandThumb4	0	0	0	1.20741827e-006	-0	0	1
RightHandIndex1	0	0	0	-0.1287480183	2.273223042	-5.916767355	1
RightHandIndex2	0	0	0	0	0	0	1
RightHandIndex3	0	0	0	0	0	0	1
RightHandIndex4	0	0	0	0.06487671641	1.045318787	6.79153565	1
RightHandMiddle1	0	0	0	-0.187317381	2.298574433	-7.334490242	1
RightHandMiddle2	0	0	0	0	0	0	1
RightHandMiddle3	0	0	0	0	0	0	1
RightHandMiddle4	0	0	0	0.1011317605	1.031425995	10.25668623	1
RightHandRing1	0	0	0	-0.2038904391	2.187828672	-7.999827968	1
RightHandRing2	0	0	0	0	0	0	1
RightHandRing3	0	0	0	0	0	0	1
RightHandRing4	0	0	0	0.1270826818	1.220105684	11.26838389	1
RightHandPinky1	0	0	0	-0.1150589234	1.798482907	-6.335472682	1
RightHandPinky2	0	0	0	0	0	0	1
RightHandPinky3	0	0	0	0	0	0	1
RightHandPinky4	0	0	0	0.09523892401	1.784551098	6.714729621	1
RH_WP	0	0	0	4.903613047e-012	2.776477095	-2.674328027	1
RightForeArmRoll	0	0	0	0	0	0	1
RightArmRoll	0	0	0	0	2.17619649e-005	0	1
Neck	0	0	0	-0.5911792768	-0.1801087749	-21.21735117	1
Neck1	0	0	0	0.6101271651	0.09836090716	7.78649821	1
Head	0	0	0	0	-0	9.996624533	1
Jaw	0	0	0	-0.06946325017	0.08775954594	-129.2006421	1
L_Eye	0	0	0	90.83837297	89.99999895	0	1
R_Eye_Socket	0	0	0	90.83837297	89.99999895	0	1
L_Eye_Socket	0	0	0	90.83837262	89.99999895	0	1
R_Eye	0	0	0	90.83837262	89.99999895	0	1
BK_WEP1	0	0	0	94.2740542	90	0	1
RightUpLeg	0	0	0	0.1245552539	2.943081661	-2.111172621	1
RightLeg	0	0	0	1.770668338e-011	-0.4645708947	-3.190265207	1
RightFoot	0	0	0	-3.427050049	1.138743235	66.87228657	1
RightToeBase	0	0	0	-0.1150285401	1.405135968	23.664964	1
RightToeEnd	0	0	0	-4.55797616e-013	86.14893154	4.67902715	1
RightLegRoll	0	0	0	0.0001763058084	-5.425123434e-010	1.211761319e-009	1
RightUpLegRoll	0	0	0	2.663171688e-005	1.239300521e-011	-7.832936944e-012	1
[Hips]
7	-5.033501625	956.9904785	299.9472656	10.27652359	0.5667190552	-1.169816732	1.0
8	-7.369170666	953.996582	343.0704346	11.06060219	2.448361874	-1.162146807	1.0
[LeftUpLeg]
7	-47.7218399	-9.041708946	-88.5655899	5.122012138	-1.150669694	-10.12298489	1.0
8	-47.7218399	-9.041708946	-88.56561279	4.907581329	1.628576994	-11.35061741	1.0
[LeftLeg]
7	428.6571655	8.300149057e-005	-0.0001282976882	3.40080452	-3.629119396	-12.27481842	1.0
8	428.6574097	8.19509296e-005	-0.0001282976882	3.99288559	-3.608047485	-13.95377636	1.0
[LeftFoot]
7	444.4235229	-0.02562306449	0.4344228506	7.971966267	-0.04144339636	19.31316757	1.0
8	444.4228516	-0.02565581724	0.5070695281	8.148843765	-0.1582653373	18.4318676	1.0
[LeftToeBase]
7	155.2787628	-3.741753244e-005	-3.431266668e-005	-0.5770237446	-0.01368607022	4.753116608	1.0
8	155.2787628	-3.741753244e-005	-3.431266668e-005	-1.010577798	0.01135803573	7.912083149	1.0
[LeftToeEnd]
7	87.1754837	4.440892099e-015	-1.243449788e-013	0	0	0	1.0
8	87.1754837	4.440892099e-015	-1.243449788e-013	0	0	0	1.0
[LeftLegRoll]
7	198.5740814	-4.116381751e-005	-7.768137039e-006	2.041032314	-0.1010176539	-0.005922925193	1.0
8	198.5738373	2.94131587e-005	-7.768137039e-006	2.391587734	-0.1179547384	-0.005917021073	1.0
[LeftUpLegRoll]
7	166.7199554	4.505005199e-005	-1.329787847e-005	-8.562968105e-006	2.627955155e-006	4.093984103e-007	1.0
8	166.720047	-5.396420966e-005	-1.329787847e-005	-8.562968105e-006	2.627955155e-006	4.093984103e-007	1.0
[Spine]
7	66.67909241	-8.790328979	-7.246826044e-006	-2.670525074	3.250048876	-0.5321745872	1.0
8	66.67909241	-8.790328979	-7.246826044e-006	-2.413580418	0.6521097422	-1.42705071	1.0
[Spine1]
7	120.7897644	-2.382928869e-006	-1.243954466e-005	-5.582172871	-1.159763813	-2.009446383	1.0
8	120.7897644	-2.382928869e-006	-1.243954466e-005	-5.833985329	-0.8838224411	-1.276428699	1.0
[Spine2]
7	97.34915924	-1.810785875e-006	-2.197143658e-006	-5.565303802	-1.155786753	-2.089932919	1.0
8	97.34913635	-1.810785875e-006	-2.197143658e-006	-5.814178467	-0.9382711649	-1.322361827	1.0
[LeftShoulder]
7	193.5427856	-57.97096634	-41.53356552	7.112024784	2.731400251	-14.67144012	1.0
8	193.5428162	-57.97096634	-41.53356552	7.341238976	3.130355358	-15.08825397	1.0
[LeftArm]
7	156.8790894	7.011984417e-005	7.880633348e-005	25.99315071	-15.33777332	-59.65735245	1.0
8	156.8790741	7.011984417e-005	7.880633348e-005	26.75205994	-14.54410076	-58.93115234	1.0
[LeftForeArm]
7	274.6986084	0.003061421448	-3.326631486e-005	-0.6977514625	-3.502995968	-23.44177818	1.0
8	274.6984558	0.003072916064	-1.087568489e-005	-0.71860677	-3.461308479	-24.14673233	1.0
[LeftForeArmRoll]
7	107.0116882	8.881784197e-014	2.842170943e-013	4.068944931	0	0	1.0
8	107.0116882	8.881784197e-014	2.842170943e-013	4.360939026	0	0	1.0
[LeftHand]
7	266.6988525	1.676345164e-005	7.525461115e-005	5.086181641	-1.01710391	6.444703102	1.0
8	266.6985474	1.094407253e-005	5.552940274e-005	5.451173782	-1.7622087	6.379183292	1.0
[LeftHandThumb1]
7	31.59937096	-14.66599846	50.44502258	-0.01277019735	-13.85661983	-3.613937378	1.0
8	31.59937096	-14.66599846	50.44502258	-0.01297024172	-13.85636616	-3.612995625	1.0
[LeftHandThumb2]
7	53.38059235	1.498850543e-005	7.028605614e-005	-9.149994003e-005	0.3001883924	0.000942222192	1.0
8	53.38059235	1.498850543e-005	7.028605614e-005	-9.149994003e-005	0.3001517951	-0.001715233317	1.0
[LeftHandThumb3]
7	33.23007202	1.22860547e-005	-2.294297155e-005	-4.535086191e-005	-7.263368752e-005	-0.0002935987432	1.0
8	33.23007202	1.22860547e-005	-2.294297155e-005	-4.535086191e-005	0.0001039972994	0.001573842252	1.0
[LeftHandThumb4]
7	41.64097214	4.147438631e-006	0.0001250760542	-0.0001564055856	3.133403879e-006	2.732047506e-006	1.0
8	41.64097214	4.147438631e-006	0.0001250760542	-0.0001564055856	3.133403879e-006	2.732047506e-006	1.0
[LeftHandIndex1]
7	107.8285675	-7.018220901	35.98760223	-5.811536994e-006	-5.240920655e-005	-6.681385517	1.0
8	107.8285675	-7.018220901	35.98760223	-5.811536994e-006	-5.240920655e-005	-6.681209564	1.0
[LeftHandIndex2]
7	41.10875702	-2.352120464e-005	-2.933129144e-005	4.521650771e-005	-0.02178817801	-6.721862316	1.0
8	41.10873413	-2.352120464e-005	-2.933129144e-005	4.521650771e-005	-0.02178817801	-6.722317696	1.0
[LeftHandIndex3]
7	28.81010056	-6.147524982e-005	-6.828597634e-006	6.273760664e-005	-0.02167593874	-6.721652031	1.0
8	28.81010056	-6.147524982e-005	-6.828597634e-006	6.273760664e-005	-0.02168289199	-6.721352577	1.0
[LeftHandIndex4]
7	28.71870995	-2.630541712e-005	-8.31338366e-006	-2.364825014e-005	9.688740477e-008	4.758323655e-007	1.0
8	28.71870995	-2.630541712e-005	-8.31338366e-006	-2.364825014e-005	9.688740477e-008	4.758323655e-007	1.0
[LeftHandMiddle1]
7	108.9268799	-1.069022179	10.86118889	-0.0008354546735	-0.02306411602	-6.721545219	1.0
8	108.9268799	-1.069022179	10.86118889	-0.0008354546735	-0.02306411602	-6.721132755	1.0
[LeftHandMiddle2]
7	50.48866272	1.766570313e-005	4.843409988e-005	-0.0008171082591	-0.02305125445	-6.72831583	1.0
8	50.48866272	1.766570313e-005	4.843409988e-005	-0.0008171082591	-0.02305125445	-6.729845047	1.0
[LeftHandMiddle3]
7	33.4220047	-3.75697964e-005	-1.358096506e-005	-0.0007995794876	-0.02311243676	-6.721877098	1.0
8	33.4220047	-3.75697964e-005	-1.358096506e-005	-0.0007995794876	-0.02297829837	-6.720292568	1.0
[LeftHandMiddle4]
7	30.04672241	1.24678736e-005	-8.839362636e-006	-2.151279296e-005	3.737249017e-006	1.959143992e-005	1.0
8	30.04672241	1.24678736e-005	-8.839362636e-006	-2.151279296e-005	3.737249017e-006	1.959143992e-005	1.0
[LeftHandRing1]
7	109.0504608	-2.691722393	-12.87385559	-0.001155005419	-0.02301577479	-6.721161366	1.0
8	109.0504837	-2.691722393	-12.87385559	-0.001155005419	-0.02301577479	-6.721369743	1.0
[LeftHandRing2]
7	46.28152466	0.4492081702	-0.04896371067	-0.001298549352	-0.02504445612	-6.72204113	1.0
8	46.28152466	0.4492081702	-0.04896371067	-0.001298549352	-0.02504445612	-6.721705914	1.0
[LeftHandRing3]
7	29.52352905	-0.4492343068	0.04896384105	-0.001304716803	-0.02499759942	-6.721692562	1.0
8	29.52352905	-0.4492343068	0.04896384105	-0.001304716803	-0.02495940216	-6.721595764	1.0
[LeftHandRing4]
7	29.06703949	-8.064614667e-005	-2.592493274e-006	-2.559948916e-005	4.032513345e-007	-7.405305041e-006	1.0
8	29.06703949	-8.064614667e-005	-2.592493274e-006	-2.559948916e-005	4.032513345e-007	-7.405305041e-006	1.0
[LeftHandPinky1]
7	104.5423584	-10.7537632	-37.43114853	-0.002212065738	-0.02576850727	-6.720909119	1.0
8	104.5423584	-10.7537632	-37.43114853	-0.002212065738	-0.02576850727	-6.721569538	1.0
[LeftHandPinky2]
7	32.66357422	4.542809984e-005	2.186753045e-005	-0.002190768253	-0.02613775432	-6.73873806	1.0
8	32.66357422	4.542809984e-005	2.186753045e-005	-0.002190768253	-0.02613775432	-6.737251759	1.0
[LeftHandPinky3]
7	25.58546066	-0.0001442180801	5.615371265e-006	-0.002058417303	-0.02636727691	-6.720834732	1.0
8	25.58546066	-0.0001442180801	5.615371265e-006	-0.002058417303	-0.02623970434	-6.72193718	1.0
[LeftHandPinky4]
7	24.9887104	1.994265222e-005	9.815598787e-006	-3.115133586e-005	4.469477972e-006	-9.886784937e-006	1.0
8	24.9887104	1.994265222e-005	9.815598787e-006	-3.115133586e-005	4.469477972e-006	-9.886784937e-006	1.0
[LH_WP]
7	120	-50	-1.776356839e-014	0	0	0	1.0
8	120	-50	-1.776356839e-014	0	0	0	1.0
[LeftArmRoll]
7	132.8951721	6.396442768e-005	-6.823013973e-005	1.951125341e-006	-2.596907279e-006	8.169748071e-006	1.0
8	132.8951721	6.396442768e-005	-6.823013973e-005	1.951125341e-006	-2.596907279e-006	8.169748071e-006	1.0
[RightShoulder]
7	193.5423126	-57.97095871	41.53348923	14.71066284	-0.2264080048	-17.63737869	1.0
8	193.5422668	-57.97095871	41.53348923	14.65573692	-0.02780488878	-17.52023315	1.0
[RightArm]
7	-156.879303	-0.001017017988	0.0001053106535	46.64283752	3.785763502	-55.14822388	1.0
8	-156.8790588	-0.001017017988	0.0001053106535	46.92150879	3.257625103	-55.34186935	1.0
[RightForeArm]
7	-274.6986084	-0.003785527078	6.882743764e-005	0.02813541144	2.908914566	-8.770557404	1.0
8	-274.6984253	-0.003783860011	6.800678966e-005	0.05025164038	2.963237762	-8.394022942	1.0
[RightHand]
7	-266.6990356	-0.003127004951	0.00104905176	-2.766808271	14.68673515	-6.923129082	1.0
8	-266.6990356	-0.003127004951	0.0009035581606	-2.937694073	14.75935078	-7.444970608	1.0
[RightHandThumb1]
7	-31.59878922	14.66024971	-50.44504166	-0.01177646033	-13.49954605	-2.857747078	1.0
8	-31.59878922	14.66024971	-50.44504166	-0.01182064787	-13.4995327	-2.857568502	1.0
[RightHandThumb2]
7	-53.38220978	-0.001566649647	-0.006651815027	-8.251657709e-005	-0.0001636507368	7.551389717e-005	1.0
8	-53.38220978	-0.001566649647	-0.006651815027	-8.251657709e-005	-0.0001636507368	-0.0004079161154	1.0
[RightHandThumb3]
7	-33.22898102	-0.0001522296225	0.005415679887	-6.073483382e-005	-0.0002658345911	-0.0001983656693	1.0
8	-33.22898102	-0.0001522296225	0.005415679887	-6.073483382e-005	-0.0002638417354	0.0001504295506	1.0
[RightHandThumb4]
7	-41.64128876	2.50704652e-005	-0.00196983316	-0.0001000055563	-2.130099801e-006	-4.877970696e-006	1.0
8	-41.64128876	2.50704652e-005	-0.00196983316	-0.0001000055563	-2.130099801e-006	-4.877970696e-006	1.0
[RightHandIndex1]
7	-107.8280258	7.018723965	-35.9876709	4.204014112e-005	-0.02174405195	-6.721621513	1.0
8	-107.8280258	7.018723965	-35.9876709	4.204014112e-005	-0.02174405195	-6.722027302	1.0
[RightHandIndex2]
7	-41.10911942	-0.003346124431	-1.78862847e-005	3.124775685e-005	-0.02176898345	-6.720694542	1.0
8	-41.10911942	-0.003346124431	-1.78862847e-005	3.124775685e-005	-0.02173498273	-6.719709396	1.0
[RightHandIndex3]
7	-28.81018066	0.001765439403	2.68525082e-006	1.786792018e-005	-0.0215269085	-6.722434044	1.0
8	-28.81018066	0.001765439403	2.68525082e-006	1.786792018e-005	-0.02153682336	-6.722949982	1.0
[RightHandIndex4]
7	-28.71783257	-0.003108778968	1.586362123e-005	-1.493754462e-005	-1.212779352e-006	-9.226591828e-006	1.0
8	-28.71783257	-0.003108778968	1.586362123e-005	-1.493754462e-005	-1.212779352e-006	-9.226591828e-006	1.0
[RightHandMiddle1]
7	-108.926857	1.063597441	-10.86116219	0.0001868384716	-0.02282170579	-6.721605778	1.0
8	-108.926857	1.063597441	-10.86116219	0.0001868384716	-0.02282170579	-6.721835136	1.0
[RightHandMiddle2]
7	-50.48854828	0.001339651179	2.375374788e-005	0.0001642687275	-0.02267166972	-6.727488995	1.0
8	-50.48858643	0.001339651179	2.375374788e-005	0.0001642687275	-0.02267166972	-6.727708817	1.0
[RightHandMiddle3]
7	-33.42213821	-0.003332593944	2.302100074e-005	0.0001218870966	-0.02265810035	-6.723034859	1.0
8	-33.42213821	-0.003332593944	2.302100074e-005	0.0001218870966	-0.02242089435	-6.721682072	1.0
[RightHandMiddle4]
7	-30.04623222	0.0008122664876	-2.058851123e-006	-4.330730917e-006	-9.398199836e-006	-1.902218719e-005	1.0
8	-30.04623222	0.0008122664876	-2.058851123e-006	-4.330730917e-006	-9.398199836e-006	-1.902218719e-005	1.0
[RightHandRing1]
7	-109.0496521	2.691042662	12.87360191	0.0002581341541	-0.02268882282	-6.720897198	1.0
8	-109.0496521	2.691045046	12.87360191	0.0002581341541	-0.02268882282	-6.721279144	1.0
[RightHandRing2]
7	-46.28044891	-0.4511820972	0.0489500016	4.356070713e-005	-0.02444208972	-6.72314167	1.0
8	-46.28044891	-0.4511820972	0.0489500016	4.356070713e-005	-0.02444208972	-6.722499847	1.0
[RightHandRing3]
7	-29.5250988	0.450481236	-0.04895903543	-1.179998094e-006	-0.02434358932	-6.720139503	1.0
8	-29.5250988	0.450481236	-0.04895903543	-1.179998094e-006	-0.02409191802	-6.719984055	1.0
[RightHandRing4]
7	-29.06622696	-0.00589569658	5.62874302e-005	-1.158445912e-006	1.577024705e-006	1.358736426e-005	1.0
8	-29.06622696	-0.00589569658	5.62874302e-005	-1.158445912e-006	1.577024705e-006	1.358736426e-005	1.0
[RightHandPinky1]
7	-104.5424271	10.74950981	37.43112946	0.0002575968974	-0.02530636452	-6.721508503	1.0
8	-104.5424347	10.74950981	37.43112946	0.0002575968974	-0.02530636452	-6.721546173	1.0
[RightHandPinky2]
7	-32.66366577	0.005259893369	6.039916479e-005	0.0001512434828	-0.02507209964	-6.73743248	1.0
8	-32.66366577	0.005259893369	6.039916479e-005	0.0001512434828	-0.02507209964	-6.737135887	1.0
[RightHandPinky3]
7	-25.58576202	-0.002923991065	8.959700062e-005	3.33084572e-005	-0.02490044199	-6.721311569	1.0
8	-25.58576202	-0.002923991065	8.959700062e-005	3.33084572e-005	-0.02479246072	-6.721667767	1.0
[RightHandPinky4]
7	-24.98819351	-0.004918924067	-6.33814343e-005	-2.06377299e-005	-7.119901824e-008	-3.390224492e-006	1.0
8	-24.98819351	-0.004918924067	-6.33814343e-005	-2.06377299e-005	-7.119901824e-008	-3.390224492e-006	1.0
[RH_WP]
7	-90.81784058	44.75069046	-9.102725983	-0.1271575838	-2.744757175	2.677313566	1.0
8	-90.81784058	44.75069046	-9.102725983	-0.1271575838	-2.744757175	2.677313566	1.0
[RightForeArmRoll]
7	-107.0118866	-0.003058596514	1.442765006e-005	-2.213446617	0	0	1.0
8	-107.0118866	-0.003058596514	1.442765006e-005	-2.350155115	0	0	1.0
[RightArmRoll]
7	-132.8953247	0.0004975197371	4.460558557e-005	1.717358629e-007	1.008304844e-005	-1.684297445e-006	1.0
8	-132.8952637	0.0004975197371	4.460558557e-005	1.717358629e-007	1.008304844e-005	-1.684297445e-006	1.0
[Neck]
7	269.5575256	8.048624295e-005	-1.028017687e-005	0.6715596914	-1.024575591	-1.905184865	1.0
8	269.5601807	8.048624295e-005	-1.028017687e-005	0.6258488894	-0.8908143044	-1.733714104	1.0
[Neck1]
7	55.64785004	-2.300738197e-005	-1.174621275e-006	0.5484852791	-1.122693658	-1.890557051	1.0
8	55.64804077	-2.300738197e-005	-1.174621275e-006	0.5198802352	-0.982201159	-1.720860839	1.0
[Head]
7	48.27823639	8.255112334e-006	4.355305009e-006	3.597252369	3.140487909	12.71338558	1.0
8	48.27838135	8.255112334e-006	4.355305009e-006	3.365131855	2.910248518	12.3587389	1.0
[Jaw]
7	16.62527084	-28.49801064	-6.624434263e-007	0	0	0	1.0
8	16.62527084	-28.49801064	-6.624434263e-007	0	0	0	1.0
[L_Eye]
7	62.91468811	-92.7388916	-39.95373535	0	0	0	1.0
8	62.91468811	-92.7388916	-39.95373535	0	0	0	1.0
[R_Eye_Socket]
7	62.91468811	-92.7388916	39.94999695	0	0	0	1.0
8	62.91468811	-92.7388916	39.94999695	0	0	0	1.0
[L_Eye_Socket]
7	62.91468811	-92.7388916	-39.95373535	0	0	0	1.0
8	62.91468811	-92.7388916	-39.95373535	0	0	0	1.0
[R_Eye]
7	62.91468811	-92.7388916	39.94999695	0	0	0	1.0
8	62.91468811	-92.7388916	39.94999695	0	0	0	1.0
[BK_WEP1]
7	159.8800049	132.8500061	-1.533420634e-012	0	0	0	1.0
8	159.8800049	132.8500061	-1.533420634e-012	0	0	0	1.0
[RightUpLeg]
7	-47.72180176	-9.041702271	88.56555939	-10.06061554	0.1553344429	26.55798912	1.0
8	-47.72180176	-9.041702271	88.56555939	-9.495697021	-2.166721106	25.81146431	1.0
[RightLeg]
7	-428.6572876	-2.972567199e-005	0.0005053556524	-2.913369656	-3.660094738	3.214334011	1.0
8	-428.6573486	-2.972567199e-005	0.0005053556524	-4.649998665	-3.4898808	3.052553177	1.0
[RightFoot]
7	-444.4236755	0.00987830013	0.3543029428	2.299001694	2.302694798	2.412203789	1.0
8	-444.4231567	0.009730912745	0.6025589108	5.165902138	5.617280006	-3.376021385	1.0
[RightToeBase]
7	-155.2784729	-0.0001240262063	-2.343192318e-005	0.002478139009	-0.0007608276792	-0.0006079305895	1.0
8	-155.278595	-0.0001454913581	-2.343192318e-005	0.00247941236	-0.0007513109595	-0.000601244159	1.0
[RightToeEnd]
7	-87.17578125	-5.002963007e-005	-0.0004951364244	0	0	0	1.0
8	-87.17578125	-5.002963007e-005	-0.0004951364244	0	0	0	1.0
[RightLegRoll]
7	-198.5740509	4.379046004e-005	-0.0004733095993	-1.728036046	0.08286900818	-0.0022537529	1.0
8	-198.5740967	4.379046004e-005	-0.0004733095993	-2.923491955	0.1407331824	-0.0022537529	1.0
[RightUpLegRoll]
7	-166.7199707	-8.367464761e-005	-3.297553485e-005	4.602033187e-006	1.224814127e-006	6.588880751e-006	1.0
8	-166.7198486	-8.367464761e-005	-3.297553485e-005	4.602033187e-006	1.224814127e-006	6.588880751e-006	1.0
[EndOfFile]
